<?xml version="1.0" encoding="UTF-8"?>
<svg width="60px" height="60px" viewBox="0 0 60 60" version="1.1" xmlns="http://www.w3.org/2000/svg" xmlns:xlink="http://www.w3.org/1999/xlink">
    <!-- Generator: Sketch 52.2 (67145) - http://www.bohemiancoding.com/sketch -->
    <title>Group 15@2x</title>
    <desc>Created with Sketch.</desc>
    <g id="Page-1" stroke="none" stroke-width="1" fill="none" fill-rule="evenodd">
        <g id="Desktop_1024" transform="translate(-33.000000, -33.000000)">
            <g id="Group-15" transform="translate(33.000000, 33.000000)">
                <polygon id="Fill-1" fill="#FF4114" points="0 59.5961739 59.592 59.5961739 59.592 45.1690435 0 45.1690435"></polygon>
                <polygon id="Fill-2" fill="#0A055F" points="29.7953217 0.000365217391 0.000365217391 15.1474957 0.000365217391 21.6405391 29.7963652 6.49236522 59.5913217 21.6405391 59.5913217 15.1474957 29.7974087 0.000365217391"></polygon>
                <polygon id="Fill-3" fill="#0A055F" points="0 23.5645565 0 42.8000348 5.04626087 42.8000348 5.04626087 28.1329043 12.2546087 28.1329043 12.2546087 42.8000348 17.3008696 42.8000348 17.3008696 23.5645565"></polygon>
                <polygon id="Fill-4" fill="#0A055F" points="19.7038957 23.5643478 19.7038957 42.7998261 27.393287 42.7998261 33.881113 27.5248696 33.881113 42.7998261 38.9273739 42.7998261 38.9273739 23.5643478 31.2379826 23.5643478 24.7501565 38.8398261 24.7501565 23.5643478"></polygon>
                <polygon id="Fill-5" fill="#0A055F" points="53.1036 23.5645565 46.3757739 30.7770783 46.3757739 23.5645565 41.329513 23.5645565 41.329513 42.8000348 46.3757739 42.8000348 46.3757739 36.6283826 47.8596 35.1617739 53.5841217 42.8000348 59.5914261 42.8000348 51.3103826 31.7506435 59.5914261 23.5645565"></polygon>
                <polygon id="Fill-6" fill="#FEFEFE" points="18.5633217 48.4453043 18.5633217 50.0762609 14.2777565 50.0762609 14.2777565 51.4823478 18.2257565 51.4823478 18.2257565 53.1127826 14.2777565 53.1127826 14.2777565 54.6873913 18.6760174 54.6873913 18.6760174 56.3183478 12.4782783 56.3183478 12.4782783 48.4453043"></polygon>
                <polygon id="Fill-7" fill="#FEFEFE" points="28.2196174 56.3187652 28.2196174 49.3905913 26.4201391 56.3187652 23.7206609 56.3187652 21.9206609 49.3905913 21.9206609 56.3187652 20.1217043 56.3187652 20.1217043 48.4452 23.3830957 48.4452 25.0709217 55.0363304 26.7577043 48.4452 30.0196174 48.4452 30.0196174 56.3187652"></polygon>
                <polygon id="Fill-8" fill="#FEFEFE" points="41.958313 53.282087 41.958313 56.318087 40.1588348 56.318087 40.1588348 48.4450435 41.958313 48.4450435 41.958313 51.6511304 45.4456174 51.6511304 45.4456174 48.4450435 47.2450957 48.4450435 47.2450957 56.318087 45.4456174 56.318087 45.4456174 53.282087"></polygon>
                <polygon id="Fill-9" fill="#FEFEFE" points="55.6113913 50.0762609 52.911913 50.0762609 52.911913 56.3188696 51.111913 56.3188696 51.111913 50.0762609 48.4129565 50.0762609 48.4129565 48.4453043 55.6113913 48.4453043"></polygon>
                <g id="Group-14" transform="translate(4.173913, 48.117913)" fill="#FEFEFE">
                    <path d="M4.36737391,3.90568696 L2.36389565,3.90568696 L2.36389565,1.90168696 L4.36737391,1.90168696 C5.0832,1.90168696 5.5125913,2.18812174 5.5125913,2.90342609 C5.5125913,3.61977391 4.93972174,3.90568696 4.36737391,3.90568696 M4.51033043,0.3276 L0.502852174,0.3276 L0.502852174,8.19907826 L2.36389565,8.19907826 L2.36389565,5.48029565 L4.51033043,5.48029565 C5.94146087,5.48029565 7.22963478,4.62151304 7.22963478,2.90342609 C7.22963478,1.18638261 6.08493913,0.3276 4.51033043,0.3276" id="Fill-10"></path>
                    <path d="M33.0337043,4.26438261 C33.0337043,2.54942609 31.9130087,1.82890435 30.9180522,1.82890435 C29.9230957,1.82890435 28.8024,2.54942609 28.8024,4.26438261 C28.8024,5.97986087 29.9230957,6.70038261 30.9180522,6.70038261 C31.9130087,6.70038261 33.0337043,5.97986087 33.0337043,4.26438261 M26.9340522,4.26438261 C26.9340522,1.48194783 29.0497043,0.214643478 30.9180522,0.214643478 C32.7864,0.214643478 34.9025739,1.48194783 34.9025739,4.26438261 C34.9025739,7.04733913 32.7864,8.31464348 30.9180522,8.31464348 C29.0497043,8.31464348 26.9340522,7.04733913 26.9340522,4.26438261" id="Fill-12"></path>
                </g>
            </g>
        </g>
    </g>
</svg>